<?xml version="1.0" encoding="utf-8"?>
<!-- Generator: Adobe Illustrator 19.2.1, SVG Export Plug-In . SVG Version: 6.00 Build 0)  -->
<svg version="1.1" id="Layer_1" xmlns="http://www.w3.org/2000/svg" xmlns:xlink="http://www.w3.org/1999/xlink" x="0px" y="0px"
	 width="40px" height="40px" viewBox="0 0 40 40" style="enable-background:new 0 0 40 40;" xml:space="preserve">
<style type="text/css">
	.st0{fill:#FFFFFF;}
</style>
<g>
	<path class="st0" d="M22.2,25.8c-1.6,0-3.1-0.9-3.6-1.8c0,0-0.9,3.3-1,4.1c-0.6,2.3-2.6,4.7-2.7,4.8c-0.1,0.1-0.4,0.1-0.4-0.1
		c0-0.4-0.6-3.2,0-5.7c0.4-1.2,1.9-8.1,1.9-8.1S16,18.2,16,16.8c0-2.2,1.2-3.8,2.8-3.8c1.4,0,2,1,2,2.2c0,1.4-0.9,3.3-1.4,5.3
		c-0.4,1.6,0.7,2.8,2.3,2.8c2.8,0,4.7-3.6,4.7-7.9c0-3.2-2.1-5.7-6.2-5.7c-4.4,0-7.3,3.3-7.3,7c0,1.4,0.4,2.2,1,3
		c0.2,0.4,0.4,0.5,0.2,0.7c-0.1,0.2-0.2,0.9-0.4,1.2C13.7,22,13.3,22.2,13,22c-2-0.9-3.1-3.1-3.1-5.7C10,12.1,13.6,7,20.6,7
		c5.7,0,9.4,4.1,9.4,8.5C30.2,21.5,26.9,25.8,22.2,25.8z"/>
</g>
</svg>
