<?xml version="1.0" encoding="utf-8"?>
<!-- Generator: Adobe Illustrator 19.2.1, SVG Export Plug-In . SVG Version: 6.00 Build 0)  -->
<svg version="1.1" id="iconmonstr" xmlns="http://www.w3.org/2000/svg" xmlns:xlink="http://www.w3.org/1999/xlink" x="0px" y="0px"
	 width="14.67px" height="22px" viewBox="0 0 14.67 22" style="enable-background:new 0 0 14.67 22;" xml:space="preserve">
<style type="text/css">
	.st0{fill:#CEC1BC;}
</style>
<g>
	<path class="st0" d="M7.33,0C3.49,0,0,3.12,0,6.97C0,10.82,3.18,15.41,7.33,22c4.15-6.59,7.33-11.18,7.33-15.03
		C14.67,3.12,11.18,0,7.33,0z M8.01,4.37c0.34-1.03,1.2-1.72,1.93-1.53C10.68,3.02,11,4,10.66,5.03c-0.34,1.03-1.2,1.72-1.94,1.53
		C7.99,6.38,7.67,5.4,8.01,4.37z M5.49,2.65C6.25,2.54,7.01,3.31,7.2,4.37c0.19,1.06-0.26,2-1.01,2.11
		C5.44,6.58,4.67,5.81,4.48,4.75C4.29,3.69,4.74,2.75,5.49,2.65z M2.09,7.63c-0.41-0.9-0.17-1.82,0.53-2.06
		c0.7-0.24,1.6,0.28,2,1.18c0.41,0.9,0.17,1.82-0.53,2.06C3.4,9.05,2.5,8.52,2.09,7.63z M10.58,11.78c-1.32,1.23-2.25,0-3.18,0.14
		c-0.93,0.14-2.64,0.82-3.57,0C2.89,11.1,5.61,7.56,7.39,7.63C9.1,7.69,11.43,10.98,10.58,11.78z M12.68,8.3
		c-0.43,0.89-1.34,1.4-2.04,1.14c-0.69-0.26-0.9-1.19-0.47-2.08c0.43-0.89,1.34-1.4,2.04-1.14C12.91,6.48,13.12,7.41,12.68,8.3z"/>
</g>
</svg>
