<?xml version="1.0" encoding="utf-8"?>
<!-- Generator: Adobe Illustrator 19.2.1, SVG Export Plug-In . SVG Version: 6.00 Build 0)  -->
<svg version="1.1" id="iconmonstr" xmlns="http://www.w3.org/2000/svg" xmlns:xlink="http://www.w3.org/1999/xlink" x="0px" y="0px"
	 width="18px" height="17.25px" viewBox="0 0 18 17.25" style="enable-background:new 0 0 18 17.25;" xml:space="preserve">
<style type="text/css">
	.st0{fill:#CEC1BC;}
</style>
<path id="calendar-3" class="st0" d="M10.5,9h-3V6h3V9z M15,6h-3v3h3V6z M6,10.5H3v3h3V10.5z M10.5,10.5h-3v3h3V10.5z M6,6H3v3h3V6z
	 M18,0v10.04c0,1.79-4.99,7.21-7.36,7.21H0V0H18z M16.5,4.5h-15v11.25c5.17,0,7.12,0,8.52,0c3.12,0,1.98-4.5,1.98-4.5
	s4.5,1.24,4.5-1.84C16.5,8.84,16.5,4.5,16.5,4.5z"/>
</svg>
