<?xml version="1.0" encoding="utf-8"?>
<!-- Generator: Adobe Illustrator 19.2.1, SVG Export Plug-In . SVG Version: 6.00 Build 0)  -->
<svg version="1.1" id="Layer_1" xmlns="http://www.w3.org/2000/svg" xmlns:xlink="http://www.w3.org/1999/xlink" x="0px" y="0px"
	 width="40px" height="40px" viewBox="0 0 40 40" style="enable-background:new 0 0 40 40;" xml:space="preserve">
<style type="text/css">
	.st0{fill:#FFFFFF;}
</style>
<g>
	<path class="st0" d="M14.6,29.1c-4.7,0-8.6-3.8-8.6-8.6s3.8-8.6,8.6-8.6c2.2,0,4.2,0.8,5.8,2.2c-1.8,1.7-1.7,1.8-2.4,2.5
		c-0.9-0.7-1.8-1.3-3.3-1.3c-2.8,0-5,2.3-5,5.1s2.2,5.1,5,5.1s3.9-1.2,4.6-3.4c-1.3,0-4.6,0-4.6,0v-3.4c0,0,6.6,0,8.2,0
		C23.4,22.9,21.7,29.1,14.6,29.1z M33,21.1h-3v3.1h-2.1v-3.1h-3.1V19h3.1v-3H30v3h3V21.1z"/>
</g>
</svg>
