<?xml version="1.0" encoding="utf-8"?>
<!-- Generator: Adobe Illustrator 19.2.1, SVG Export Plug-In . SVG Version: 6.00 Build 0)  -->
<svg version="1.1" id="Layer_1" xmlns="http://www.w3.org/2000/svg" xmlns:xlink="http://www.w3.org/1999/xlink" x="0px" y="0px"
	 width="40px" height="40px" viewBox="0 0 40 40" style="enable-background:new 0 0 40 40;" xml:space="preserve">
<style type="text/css">
	.st0{fill:#FFFFFF;}
</style>
<g>
	<path class="st0" d="M20,8.9c3.6,0,4,0,5.5,0.1c1.3,0.1,2,0.3,2.5,0.5c0.6,0.2,1.1,0.5,1.6,1c0.5,0.5,0.8,0.9,1,1.6
		c0.2,0.5,0.4,1.2,0.5,2.5C31,16,31,16.4,31,20s0,4-0.1,5.5c-0.1,1.3-0.3,2-0.5,2.5c-0.2,0.6-0.5,1.1-1,1.6c-0.5,0.5-0.9,0.8-1.6,1
		c-0.5,0.2-1.2,0.4-2.5,0.5c-1.4,0.1-1.9,0.1-5.5,0.1c-3.6,0-4,0-5.5-0.1c-1.3-0.1-2-0.3-2.5-0.5c-0.6-0.2-1.1-0.5-1.6-1
		C10,29,9.7,28.6,9.4,28C9.2,27.5,9,26.8,9,25.5C8.9,24,8.9,23.6,8.9,20s0-4,0.1-5.5c0.1-1.3,0.3-2,0.5-2.5c0.2-0.6,0.5-1.1,1-1.6
		c0.5-0.5,0.9-0.8,1.6-1c0.5-0.2,1.2-0.4,2.5-0.5C15.9,8.9,16.3,8.9,20,8.9 M20,6.5c-3.7,0-4.1,0-5.6,0.1C13,6.6,12,6.9,11.1,7.2
		C10.2,7.6,9.5,8,8.7,8.8C8,9.5,7.5,10.3,7.2,11.2C6.8,12,6.6,13,6.5,14.4c-0.1,1.4-0.1,1.9-0.1,5.6c0,3.7,0,4.1,0.1,5.6
		C6.6,27,6.8,28,7.2,28.8c0.3,0.9,0.8,1.6,1.6,2.4c0.8,0.8,1.5,1.2,2.4,1.6c0.9,0.3,1.8,0.6,3.3,0.6c1.4,0.1,1.9,0.1,5.6,0.1
		s4.1,0,5.6-0.1c1.4-0.1,2.4-0.3,3.3-0.6c0.9-0.3,1.6-0.8,2.4-1.6c0.8-0.8,1.2-1.5,1.6-2.4c0.3-0.9,0.6-1.8,0.6-3.3
		c0.1-1.4,0.1-1.9,0.1-5.6s0-4.1-0.1-5.6c-0.1-1.4-0.3-2.4-0.6-3.3c-0.3-0.9-0.8-1.6-1.6-2.4c-0.8-0.8-1.5-1.2-2.4-1.6
		c-0.9-0.3-1.8-0.6-3.3-0.6C24.1,6.5,23.6,6.5,20,6.5L20,6.5z"/>
	<path class="st0" d="M20,13.1c-3.8,0-6.9,3.1-6.9,6.9s3.1,6.9,6.9,6.9s6.9-3.1,6.9-6.9S23.8,13.1,20,13.1z M20,24.5
		c-2.5,0-4.5-2-4.5-4.5s2-4.5,4.5-4.5c2.5,0,4.5,2,4.5,4.5S22.4,24.5,20,24.5z"/>
	<circle class="st0" cx="27.2" cy="12.8" r="1.6"/>
</g>
</svg>
