<?xml version="1.0" encoding="utf-8"?>
<!-- Generator: Adobe Illustrator 19.2.1, SVG Export Plug-In . SVG Version: 6.00 Build 0)  -->
<svg version="1.1" id="Layer_1" xmlns="http://www.w3.org/2000/svg" xmlns:xlink="http://www.w3.org/1999/xlink" x="0px" y="0px"
	 width="40px" height="40px" viewBox="0 0 40 40" style="enable-background:new 0 0 40 40;" xml:space="preserve">
<style type="text/css">
	.st0{fill:#FFFFFF;}
</style>
<path class="st0" d="M32.5,20.9c0,2-0.2,4.2-0.2,4.2s-0.2,1.7-1,2.5c-0.9,0.9-2,0.9-2.5,1c-3.5,0.2-8.8,0.2-8.8,0.2s-6.5,0-8.5-0.2
	c-0.6-0.1-1.8,0-2.7-1c-0.8-0.8-1-2.5-1-2.5S7.5,23,7.5,21V19c0-2,0.2-4.1,0.2-4.1s0.2-1.7,1-2.5c0.9-1,2-1,2.5-1
	c3.5-0.2,8.8-0.2,8.8-0.2s5.2,0,8.8,0.2c0.5,0,1.6,0,2.5,1c0.8,0.8,1,2.5,1,2.5s0.2,2,0.2,4.1V20.9z M17.4,23.2l6.7-3.5l-6.7-3.5
	V23.2z"/>
</svg>
