<?xml version="1.0" encoding="utf-8"?>
<!-- Generator: Adobe Illustrator 19.2.1, SVG Export Plug-In . SVG Version: 6.00 Build 0)  -->
<svg version="1.1" id="iconmonstr" xmlns="http://www.w3.org/2000/svg" xmlns:xlink="http://www.w3.org/1999/xlink" x="0px" y="0px"
	 width="22px" height="20.17px" viewBox="0 0 22 20.17" style="enable-background:new 0 0 22 20.17;" xml:space="preserve">
<style type="text/css">
	.st0{fill:#CEC1BC;}
</style>
<path id="trophy-3" class="st0" d="M22,1.83c-0.34,3.76-2.57,7.42-6.3,8.65c0.27-0.51,0.55-1.05,0.81-1.63
	c2.67-1.39,3.7-3.9,4.09-5.73h-2.46c0.05-0.41,0.09-0.85,0.13-1.29H22z M0,1.83c0.34,3.76,2.57,7.42,6.3,8.65
	C6.03,9.98,5.75,9.44,5.49,8.85c-2.67-1.39-3.7-3.9-4.09-5.73h2.46C3.81,2.71,3.77,2.28,3.74,1.83H0z M17.42,0
	c0,8.99-4.67,11.96-5.13,15.58H9.72C9.26,11.96,4.58,8.99,4.58,0H17.42z M10.72,11.96C8.99,8.98,8.3,5.15,8.29,1.83H6.74
	C6.93,6.09,8.56,9.47,10.72,11.96z M12.32,16.5H9.69c-0.19,1.09-0.58,2.4-2.36,2.4v1.27h7.33V18.9
	C12.84,18.9,12.49,17.59,12.32,16.5z"/>
</svg>
