<?xml version="1.0" encoding="utf-8"?>
<!-- Generator: Adobe Illustrator 19.2.1, SVG Export Plug-In . SVG Version: 6.00 Build 0)  -->
<svg version="1.1" id="Layer_1" xmlns="http://www.w3.org/2000/svg" xmlns:xlink="http://www.w3.org/1999/xlink" x="0px" y="0px"
	 width="48px" height="38.3px" viewBox="0 0 48 38.3" style="enable-background:new 0 0 48 38.3;" xml:space="preserve">
<style type="text/css">
	.st0{fill:#ECE7E5;}
</style>
<g>
	<path class="st0" d="M21.1,29.1c0,2.8-0.9,5.1-2.8,6.7c-1.8,1.7-4.2,2.5-7,2.5c-3.3,0-6-1.1-8.2-3.3S0,29.5,0,25.2
		c0-4,0.6-7.5,1.8-10.4C2.9,11.9,4.3,9.5,6,7.4c1.7-2,3.4-3.6,5.1-4.9c1.8-1.2,3.3-2.1,4.7-2.6l4.6,6.4c-2.7,1.4-4.9,3.2-6.5,5.4
		c-1.7,2.3-2.5,5.1-2.5,8.6c0.5-0.1,1.2-0.2,2-0.2c2.5,0,4.3,0.9,5.7,2.6C20.5,24.5,21.1,26.6,21.1,29.1z M48,29.1
		c0,2.8-0.9,5.1-2.8,6.7c-1.8,1.7-4.2,2.5-7,2.5c-3.3,0-6-1.1-8.2-3.3s-3.2-5.5-3.2-9.7c0-4,0.6-7.5,1.8-10.4
		c1.2-2.9,2.6-5.3,4.2-7.4c1.7-2,3.4-3.6,5.1-4.9c1.8-1.2,3.3-2.1,4.7-2.6l4.6,6.4c-2.7,1.4-4.9,3.2-6.5,5.4
		c-1.7,2.3-2.5,5.1-2.5,8.6c0.5-0.1,1.2-0.2,2-0.2c2.5,0,4.4,0.9,5.7,2.6C47.3,24.5,48,26.6,48,29.1z"/>
</g>
</svg>
