<?xml version="1.0" encoding="utf-8"?>
<!-- Generator: Adobe Illustrator 19.2.1, SVG Export Plug-In . SVG Version: 6.00 Build 0)  -->
<svg version="1.1" id="Layer_1" xmlns="http://www.w3.org/2000/svg" xmlns:xlink="http://www.w3.org/1999/xlink" x="0px" y="0px"
	 width="272.8px" height="300px" viewBox="0 0 272.8 300" style="enable-background:new 0 0 272.8 300;" xml:space="preserve">
<style type="text/css">
	.st0{fill:#221000;}
	.st1{fill:#C8531F;}
	.st2{fill:none;}
	.st3{fill:#F58546;}
	.st4{fill:#FFFFFF;}
	.st5{fill:#F5F9F5;}
</style>
<g>
	<path class="st0" d="M212.1,57.7c1.5-5.1,2-10.6,1.5-16.2c-2.3-23.7-23.5-41-47.2-38.7c-18.7,1.8-33.4,15.4-37.6,32.7
		c-42,3-78.2,25.6-100.1,58.3c-15.5,22.7-24.1,50.5-22.8,80c3.2,72.7,65,129.2,137.7,126c43.3-1.9,80.9-24.7,103.5-58.1
		c15.7-22.8,24.4-50.7,23-80.4C268.2,117.8,245.5,80.3,212.1,57.7z M167.1,23.3c11.7-1.2,22.1,7.4,23.3,19.1
		c0.1,1.3,0.2,2.4,0.1,3.5c-12.7-5.5-26.4-9-40.6-10.2C152.9,28.9,159.3,24,167.1,23.3z"/>
</g>
<g>
	<path class="st1" d="M209,54.9c1.5-5.1,2-10.6,1.5-16.2C208.2,15,187-2.3,163.3,0c-18.7,1.8-33.4,15.4-37.6,32.7
		c-42,3-78.2,25.6-100.1,58.3c-15.5,22.7-24.1,50.5-22.8,80c3.2,72.7,65,129.2,137.7,126c43.3-1.9,80.9-24.7,103.5-58.1
		c15.7-22.8,24.4-50.7,23-80.4C265.1,115.1,242.4,77.5,209,54.9z M164,20.5c11.7-1.2,22.1,7.4,23.3,19.1c0.1,1.3,0.2,2.4,0.1,3.5
		c-12.7-5.5-26.4-9-40.6-10.2C149.8,26.2,156.2,21.3,164,20.5z"/>
</g>
<path class="st2" d="M141.5,40.5C72.9,36.8,14.1,89.6,10.4,158.2c-3.7,68.6,49.1,127.5,117.7,131.2c68.6,3.7,127.5-49.1,131.2-117.7
	C263,103.1,210.2,44.2,141.5,40.5z"/>
<path class="st3" d="M141.8,35.4C70.4,31.6,9.1,86.5,5.3,158c-3.9,71.4,51.1,132.7,122.5,136.5c71.4,3.9,132.7-51.1,136.5-122.5
	C268.2,100.6,213.3,39.3,141.8,35.4z M262.1,171.9c-3.8,70.2-64,124.2-134.2,120.4c-70.2-3.8-124.2-64-120.4-134.2
	c3.8-70.2,64-124.2,134.2-120.4C211.9,41.4,265.9,101.7,262.1,171.9z"/>
<path class="st1" d="M141.5,40.5C72.9,36.8,14.1,89.6,10.4,158.2c-3.7,68.6,49.1,127.5,117.7,131.2c68.6,3.7,127.5-49.1,131.2-117.7
	C263,103.1,210.2,44.2,141.5,40.5z"/>
<path class="st4" d="M141.7,37.6C71.5,33.8,11.3,87.9,7.5,158.1c-3.8,70.2,50.2,130.4,120.4,134.2c70.2,3.8,130.4-50.2,134.2-120.4
	C265.9,101.7,211.9,41.4,141.7,37.6z M259.3,171.7c-3.7,68.6-62.6,121.4-131.2,117.7C59.5,285.7,6.7,226.9,10.4,158.2
	C14.1,89.6,72.9,36.8,141.5,40.5C210.2,44.2,263,103.1,259.3,171.7z"/>
<path class="st4" d="M233.6,170.3c3-54.6-38.9-101.2-93.5-104.2c-54.6-3-101.2,38.9-104.2,93.5c-3,54.6,38.9,101.2,93.5,104.2
	C184,266.8,230.7,224.9,233.6,170.3z M109.6,258.9C57.8,245.1,27,191.8,40.9,140S108,57.5,159.8,71.4
	c51.8,13.9,82.5,67.1,68.7,118.9S161.4,272.8,109.6,258.9z"/>
<ellipse transform="matrix(0.2588 -0.9659 0.9659 0.2588 -59.6819 252.5059)" class="st3" cx="134.7" cy="165.1" rx="97.1" ry="97.1"/>
<g>
	<polygon class="st4" points="183.6,250.6 49.7,213.7 47.6,211.4 185.9,249.5 	"/>
</g>
<g>
	<polygon class="st4" points="40.3,189.1 39,187 206.6,231.7 204.7,233 	"/>
</g>
<g>
	<path class="st5" d="M137.1,53.1c-0.1,2,1.5,3.8,3.5,3.9c2.1,0.1,3.8-1.5,3.9-3.5c0.1-2.1-1.5-3.8-3.5-3.9
		C139,49.5,137.3,51.1,137.1,53.1"/>
	<path class="st5" d="M148.8,54c-0.3,2,1.1,3.9,3.1,4.3c2,0.3,3.9-1.1,4.3-3.1c0.3-2-1.1-3.9-3.1-4.3C151.1,50.6,149.1,52,148.8,54"
		/>
	<path class="st5" d="M160.3,56.1c-0.5,2,0.6,4,2.6,4.6c2,0.5,4-0.6,4.6-2.6c0.5-2-0.6-4-2.6-4.6C162.9,52.9,160.9,54.1,160.3,56.1"
		/>
	<path class="st5" d="M171.6,59.3c-0.7,1.9,0.2,4.1,2.1,4.8c1.9,0.7,4.1-0.2,4.8-2.1c0.7-1.9-0.2-4.1-2.1-4.8
		C174.5,56.5,172.3,57.4,171.6,59.3"/>
	<path class="st5" d="M182.4,63.8c-0.9,1.8-0.2,4.1,1.6,5c1.8,0.9,4.1,0.2,5-1.6c0.9-1.8,0.2-4.1-1.6-5
		C185.6,61.2,183.4,61.9,182.4,63.8"/>
	<path class="st5" d="M192.8,69.3c-1.1,1.7-0.6,4,1.1,5.1c1.7,1.1,4,0.6,5.1-1.1c1.1-1.7,0.6-4-1.1-5.1
		C196.2,67.1,193.9,67.6,192.8,69.3"/>
	<path class="st5" d="M202.4,75.9c-1.3,1.6-1,3.9,0.5,5.2c1.6,1.3,3.9,1.1,5.2-0.5c1.3-1.6,1-3.9-0.5-5.2
		C206.1,74,203.7,74.3,202.4,75.9"/>
	<path class="st5" d="M211.4,83.4c-1.5,1.4-1.5,3.8,0,5.3c1.4,1.5,3.8,1.5,5.3,0c1.5-1.4,1.5-3.8,0-5.3
		C215.2,82,212.8,82,211.4,83.4"/>
	<path class="st5" d="M219.5,91.9c-1.6,1.3-1.8,3.6-0.6,5.2c1.3,1.6,3.6,1.8,5.2,0.6c1.6-1.3,1.9-3.6,0.6-5.2
		C223.4,90.8,221.1,90.6,219.5,91.9"/>
	<path class="st5" d="M226.7,101.1c-1.7,1.1-2.2,3.4-1.1,5.1c1.1,1.7,3.4,2.2,5.1,1.1c1.7-1.1,2.2-3.4,1.1-5.1
		C230.7,100.5,228.4,100,226.7,101.1"/>
	<path class="st5" d="M232.8,111.1c-1.8,0.9-2.6,3.2-1.6,5c0.9,1.8,3.2,2.6,5,1.6c1.8-0.9,2.6-3.2,1.6-5
		C236.9,110.9,234.7,110.1,232.8,111.1"/>
	<path class="st5" d="M237.9,121.6c-1.9,0.7-2.9,2.9-2.1,4.8c0.7,1.9,2.9,2.9,4.8,2.1c1.9-0.7,2.9-2.9,2.1-4.8
		C242,121.8,239.9,120.9,237.9,121.6"/>
	<path class="st5" d="M241.9,132.6c-2,0.5-3.2,2.6-2.6,4.5c0.5,2,2.6,3.2,4.5,2.6c2-0.5,3.2-2.6,2.6-4.5
		C245.9,133.3,243.9,132.1,241.9,132.6"/>
	<path class="st5" d="M244.7,144c-2,0.3-3.4,2.2-3.1,4.2c0.3,2,2.2,3.4,4.2,3.1c2-0.3,3.4-2.2,3.1-4.2
		C248.6,145.1,246.7,143.7,244.7,144"/>
	<path class="st5" d="M246.3,155.6c-2.1,0.1-3.6,1.8-3.5,3.9c0.1,2.1,1.9,3.6,3.9,3.5c2.1-0.1,3.6-1.9,3.5-3.9
		C250.1,157.1,248.3,155.5,246.3,155.6"/>
	<path class="st5" d="M246.7,167.3c-2.1-0.1-3.8,1.5-3.9,3.5c-0.1,2,1.5,3.8,3.5,3.9c2,0.1,3.8-1.5,3.9-3.5
		C250.3,169.2,248.7,167.4,246.7,167.3"/>
	<path class="st5" d="M245.8,179c-2-0.3-3.9,1.1-4.3,3.1c-0.3,2,1.1,3.9,3.1,4.3c2,0.3,3.9-1.1,4.3-3.1
		C249.2,181.2,247.8,179.3,245.8,179"/>
	<path class="st5" d="M243.7,190.5c-2-0.5-4,0.6-4.6,2.6c-0.5,2,0.6,4,2.6,4.6c2,0.5,4-0.6,4.6-2.6
		C246.9,193.1,245.7,191,243.7,190.5"/>
	<path class="st5" d="M240.5,201.8c-1.9-0.7-4.1,0.2-4.8,2.1c-0.7,1.9,0.2,4.1,2.1,4.8c1.9,0.7,4.1-0.2,4.8-2.1
		C243.3,204.6,242.4,202.5,240.5,201.8"/>
	<path class="st5" d="M236,212.6c-1.8-0.9-4.1-0.2-5,1.6c-0.9,1.8-0.2,4.1,1.6,5c1.8,0.9,4.1,0.2,5-1.6
		C238.6,215.8,237.9,213.5,236,212.6"/>
	<path class="st5" d="M230.5,222.9c-1.7-1.1-4-0.6-5.1,1.1c-1.1,1.7-0.6,4,1.1,5.1c1.7,1.1,4,0.6,5.1-1.1
		C232.7,226.3,232.2,224,230.5,222.9"/>
	<path class="st5" d="M223.9,232.6c-1.6-1.3-3.9-1.1-5.2,0.5c-1.3,1.6-1,3.9,0.5,5.2c1.6,1.3,3.9,1.1,5.2-0.5
		C225.8,236.2,225.5,233.9,223.9,232.6"/>
	<path class="st5" d="M216.4,241.5c-1.4-1.5-3.8-1.5-5.3,0c-1.5,1.4-1.5,3.8,0,5.3c1.5,1.5,3.8,1.5,5.3,0
		C217.8,245.4,217.8,243,216.4,241.5"/>
	<path class="st5" d="M207.9,249.7c-1.3-1.6-3.6-1.8-5.2-0.6c-1.6,1.3-1.8,3.6-0.6,5.2c1.3,1.6,3.6,1.8,5.2,0.6
		C209,253.6,209.2,251.3,207.9,249.7"/>
	<path class="st5" d="M198.7,256.8c-1.1-1.7-3.4-2.2-5.1-1.1c-1.7,1.1-2.2,3.4-1.1,5.1c1.1,1.7,3.4,2.2,5.1,1.1
		C199.3,260.9,199.8,258.6,198.7,256.8"/>
	<path class="st5" d="M188.7,263c-0.9-1.8-3.2-2.6-5-1.6c-1.8,0.9-2.6,3.2-1.6,5c0.9,1.8,3.2,2.6,5,1.6
		C188.9,267.1,189.6,264.8,188.7,263"/>
	<path class="st5" d="M178.2,268.1c-0.7-1.9-2.9-2.9-4.8-2.1c-1.9,0.7-2.9,2.9-2.1,4.8c0.7,1.9,2.9,2.9,4.8,2.1
		C178,272.2,178.9,270,178.2,268.1"/>
	<path class="st5" d="M167.2,272.1c-0.5-2-2.6-3.2-4.5-2.6c-2,0.5-3.2,2.6-2.6,4.5c0.5,2,2.6,3.2,4.5,2.6
		C166.5,276.1,167.7,274.1,167.2,272.1"/>
	<path class="st5" d="M155.8,274.9c-0.3-2-2.2-3.4-4.2-3.1c-2,0.3-3.4,2.2-3.1,4.2c0.3,2,2.2,3.4,4.2,3.1
		C154.7,278.8,156.1,276.9,155.8,274.9"/>
	<path class="st5" d="M144.2,276.5c-0.1-2.1-1.8-3.6-3.9-3.5c-2.1,0.1-3.6,1.9-3.5,3.9c0.1,2.1,1.8,3.6,3.9,3.5
		C142.7,280.2,144.3,278.5,144.2,276.5"/>
	<path class="st5" d="M132.5,276.8c0.1-2-1.5-3.8-3.5-3.9c-2.1-0.1-3.8,1.5-3.9,3.5c-0.1,2.1,1.5,3.8,3.5,3.9
		C130.6,280.4,132.4,278.9,132.5,276.8"/>
	<path class="st5" d="M120.8,276c0.3-2-1.1-3.9-3.1-4.3c-2-0.3-3.9,1.1-4.3,3.1c-0.3,2,1.1,3.9,3.1,4.3
		C118.6,279.4,120.5,278,120.8,276"/>
	<path class="st5" d="M109.3,273.9c0.5-2-0.6-4-2.6-4.6c-2-0.5-4,0.6-4.6,2.6c-0.5,2,0.6,4,2.6,4.6
		C106.7,277,108.7,275.9,109.3,273.9"/>
	<path class="st5" d="M98,270.6c0.7-1.9-0.2-4.1-2.1-4.8c-1.9-0.7-4.1,0.2-4.8,2.1c-0.7,1.9,0.2,4.1,2.1,4.8
		C95.1,273.5,97.3,272.5,98,270.6"/>
	<path class="st5" d="M87.2,266.2c0.9-1.8,0.2-4.1-1.6-5c-1.8-0.9-4.1-0.2-5,1.6c-0.9,1.8-0.2,4.1,1.6,5
		C84,268.8,86.3,268,87.2,266.2"/>
	<path class="st5" d="M76.9,260.7c1.1-1.7,0.6-4-1.1-5.1c-1.7-1.1-4-0.6-5.1,1.1c-1.1,1.7-0.6,4,1.1,5.1
		C73.5,262.9,75.8,262.4,76.9,260.7"/>
	<path class="st5" d="M67.2,254.1c1.3-1.6,1.1-3.9-0.5-5.2c-1.6-1.3-3.9-1.1-5.2,0.5c-1.3,1.6-1.1,3.9,0.5,5.2
		C63.6,255.9,65.9,255.7,67.2,254.1"/>
	<path class="st5" d="M58.2,246.5c1.5-1.4,1.5-3.8,0-5.3c-1.4-1.5-3.8-1.5-5.3,0c-1.5,1.4-1.5,3.8,0,5.3
		C54.4,248,56.8,248,58.2,246.5"/>
	<path class="st5" d="M50.1,238.1c1.6-1.3,1.8-3.6,0.6-5.2c-1.3-1.6-3.6-1.8-5.2-0.6c-1.6,1.3-1.8,3.6-0.6,5.2
		C46.2,239.1,48.5,239.4,50.1,238.1"/>
	<path class="st5" d="M43,228.8c1.7-1.1,2.2-3.4,1.1-5.1c-1.1-1.7-3.4-2.2-5.1-1.1c-1.7,1.1-2.2,3.4-1.1,5.1
		C38.9,229.5,41.2,229.9,43,228.8"/>
	<path class="st5" d="M36.8,218.9c1.8-0.9,2.6-3.2,1.6-5c-0.9-1.8-3.2-2.6-5-1.6c-1.8,0.9-2.6,3.2-1.6,5
		C32.7,219.1,35,219.8,36.8,218.9"/>
	<path class="st5" d="M31.7,208.3c1.9-0.7,2.9-2.9,2.1-4.8c-0.7-1.9-2.9-2.9-4.8-2.1c-1.9,0.7-2.9,2.9-2.1,4.8
		C27.6,208.1,29.8,209.1,31.7,208.3"/>
	<path class="st5" d="M27.7,197.3c2-0.5,3.2-2.6,2.6-4.5c-0.5-2-2.6-3.2-4.6-2.6c-2,0.5-3.2,2.6-2.6,4.5
		C23.7,196.7,25.7,197.9,27.7,197.3"/>
	<path class="st5" d="M24.9,186c2-0.3,3.4-2.2,3.1-4.2c-0.3-2-2.2-3.4-4.2-3.1c-2,0.3-3.4,2.2-3.1,4.2C21,184.9,22.9,186.3,24.9,186
		"/>
	<path class="st5" d="M23.3,174.4c2.1-0.1,3.6-1.8,3.5-3.9c-0.1-2.1-1.9-3.6-3.9-3.5c-2.1,0.1-3.6,1.8-3.5,3.9
		C19.5,172.9,21.3,174.5,23.3,174.4"/>
	<path class="st5" d="M23,162.6c2,0.1,3.8-1.5,3.9-3.5c0.1-2.1-1.5-3.8-3.5-3.9c-2-0.1-3.8,1.5-3.9,3.5
		C19.4,160.8,20.9,162.5,23,162.6"/>
	<path class="st5" d="M23.8,151c2,0.3,3.9-1.1,4.3-3.1c0.3-2-1.1-3.9-3.1-4.3c-2-0.3-3.9,1.1-4.3,3.1
		C20.4,148.7,21.8,150.6,23.8,151"/>
	<path class="st5" d="M25.9,139.4c2,0.5,4-0.6,4.6-2.6c0.5-2-0.6-4-2.6-4.6c-2-0.5-4,0.6-4.6,2.6C22.7,136.9,23.9,138.9,25.9,139.4"
		/>
	<path class="st5" d="M29.2,128.2c1.9,0.7,4.1-0.2,4.8-2.1c0.7-1.9-0.2-4.1-2.1-4.8c-1.9-0.7-4.1,0.2-4.8,2.1
		C26.3,125.3,27.3,127.5,29.2,128.2"/>
	<path class="st5" d="M33.6,117.4c1.8,0.9,4.1,0.2,5-1.6c0.9-1.8,0.2-4.1-1.6-5c-1.8-0.9-4.1-0.2-5,1.6
		C31,114.2,31.8,116.4,33.6,117.4"/>
	<path class="st5" d="M39.1,107c1.7,1.1,4,0.6,5.1-1.1c1.1-1.7,0.6-4-1.1-5.1c-1.7-1.1-4-0.6-5.1,1.1
		C36.9,103.6,37.4,105.9,39.1,107"/>
	<path class="st5" d="M45.7,97.4c1.6,1.3,3.9,1.1,5.2-0.5c1.3-1.6,1.1-3.9-0.5-5.2c-1.6-1.3-3.9-1.1-5.2,0.5
		C43.9,93.7,44.1,96.1,45.7,97.4"/>
	<path class="st5" d="M53.3,88.4c1.5,1.5,3.8,1.5,5.3,0c1.5-1.4,1.5-3.8,0-5.3c-1.4-1.5-3.8-1.5-5.3,0C51.8,84.6,51.8,87,53.3,88.4"
		/>
	<path class="st5" d="M61.7,80.3c1.3,1.6,3.6,1.8,5.2,0.6c1.6-1.3,1.8-3.6,0.6-5.2c-1.3-1.6-3.6-1.9-5.2-0.6
		C60.7,76.4,60.4,78.7,61.7,80.3"/>
	<path class="st5" d="M71,73.1c1.1,1.7,3.4,2.2,5.1,1.1c1.7-1.1,2.2-3.4,1.1-5.1c-1.1-1.7-3.4-2.2-5.1-1.1
		C70.3,69.1,69.8,71.4,71,73.1"/>
	<path class="st5" d="M80.9,67c0.9,1.8,3.2,2.6,5,1.6c1.8-0.9,2.6-3.2,1.6-5c-0.9-1.8-3.2-2.6-5-1.6C80.7,62.9,80,65.1,80.9,67"/>
	<path class="st5" d="M91.5,61.9c0.7,1.9,2.9,2.9,4.8,2.1c1.9-0.7,2.9-2.9,2.1-4.8c-0.7-1.9-2.9-2.9-4.8-2.1
		C91.7,57.8,90.7,59.9,91.5,61.9"/>
	<path class="st5" d="M102.5,57.9c0.5,2,2.6,3.2,4.5,2.6c2-0.5,3.2-2.6,2.6-4.5c-0.5-2-2.6-3.2-4.5-2.6
		C103.1,53.9,101.9,55.9,102.5,57.9"/>
	<path class="st5" d="M113.8,55.1c0.3,2,2.2,3.4,4.2,3.1c2-0.3,3.4-2.2,3.1-4.2c-0.3-2-2.2-3.4-4.2-3.1
		C114.9,51.2,113.5,53.1,113.8,55.1"/>
	<path class="st5" d="M125.4,53.5c0.1,2,1.8,3.6,3.9,3.5c2.1-0.1,3.6-1.9,3.5-3.9c-0.1-2.1-1.8-3.6-3.9-3.5
		C126.9,49.7,125.3,51.5,125.4,53.5"/>
</g>
<g>
	<path class="st4" d="M99.4,127.7l-9-2.5L79,167.1L75.7,179l-10-2.7l3.3-11.9l11.4-41.8l-9.7-2.6l2.7-10l9.7,2.6l10,2.7l9,2.5
		L99.4,127.7z"/>
	<path class="st4" d="M116.3,190l-10.2-2.8l5.8-46l-8.2,20.2l0,0.1l2.6,0.7l-2.7,10l-4.2-1.1l-5.7,12.7L83.5,181l5.7-12.7l-2.3-0.6
		l2.7-10l3.9,1.1L111,120l12.4,3.4L116.3,190z"/>
	<path class="st4" d="M151.7,149.3l1.9-6.9l-8.9-2.4l-11.9,43.8l8.9,2.4l6-22l-4.2-1.1l2.7-10l14.2,3.9l-9.5,34.9
		c-0.5,1.8-1.5,3.2-3,4.2c-1.5,1-3.2,1.5-5.1,1.3l-16.8-4.6c-1.7-0.8-2.9-2-3.7-3.7c-0.8-1.7-0.9-3.4-0.5-5.1l13.5-49.5
		c0.5-1.8,1.5-3.2,3-4.2c1.5-1.1,3.2-1.5,5.1-1.3l16.8,4.6c1.7,0.8,2.9,2,3.7,3.7c0.8,1.7,0.9,3.4,0.5,5.2l-2.7,9.8L151.7,149.3z"/>
	<path class="st4" d="M196.7,146.6c1,2.2,1.2,4.3,0.6,6.5l-1.9,6.8l-0.5,1.8l-1.8-0.5l-6.4-1.7l-1.8-0.5l0.5-1.8l1.6-5.8l-7.7-2.1
		l-3.1,11.4l-0.1,0.5l8.6,2.3c2.6,0.7,4.5,2.2,5.8,4.4c1.3,2.2,1.6,4.6,0.9,7.2l-2.5,9.1l-4,14.7c-0.6,2.2-1.9,4-3.8,5.3
		c-1.9,1.2-4,1.7-6.3,1.5l-0.2,0l-0.1,0l-11.9-3.3l-0.1,0l-0.2-0.1c-2.1-1-3.6-2.5-4.6-4.5c-1-2.2-1.2-4.3-0.6-6.5l1.9-6.8l0.5-1.8
		l1.8,0.5l6.4,1.7l1.8,0.5l-0.5,1.8l-1.6,5.8l7.7,2.1l6-21.9l-8.7-2.4c-2.6-0.7-4.5-2.2-5.8-4.4c-1.3-2.2-1.6-4.6-0.9-7.2l0.2-0.6
		l0.2-0.8l3.4-12.4c0.6-2.2,1.9-4,3.8-5.3c1.9-1.2,4-1.7,6.3-1.5l0.2,0l0.1,0l11.9,3.3l0.1,0l0.2,0
		C194.2,143,195.7,144.5,196.7,146.6z"/>
	<path class="st4" d="M198,212.2l-10-2.7l2.9-10.6l10,2.7L198,212.2z M205,147.3l0.4-1.6l10,2.7l-0.4,1.6l-15.1,48.5l-6.5-1.8
		L205,147.3z"/>
</g>
<g>
	<path class="st4" d="M132.1,85.3c-0.4,2.1-1.9,5.8-4.7,5.1c-3.4-1-2.7-6.6-1.4-8.8c0.8-1.4,2.5-3.3,4.3-2.6
		C132.8,79.7,132.5,83.3,132.1,85.3"/>
	<path class="st4" d="M143.3,83.7c-0.7,2.2-2.6,5-5.2,4.5c-2.7-0.5-3.3-4-2.8-6.3c0.6-2.6,3.1-6.2,6.2-5
		C144.1,77.9,144,81.6,143.3,83.7"/>
	<path class="st4" d="M151.7,89.9c-1.2,1.9-3.7,4.1-6.1,3.1c-2.5-1.1-2.3-4.5-1.4-6.5c1.1-2.4,4.3-5.3,7.2-3.8
		C154,84.2,153,87.9,151.7,89.9"/>
	<path class="st4" d="M153.4,102.3c-1.6,1.1-4.2,2.3-6,1.3c-3.1-1.8-0.3-6,1.7-7.4c1.8-1.3,5.7-2.5,7.2-0.1
		C157.7,98.4,155.1,101.1,153.4,102.3"/>
	<path class="st4" d="M142.4,102.1c-0.4-1.3,0.5-3.2,0.3-4.6c-0.1-1.3-0.5-2.3-1.3-3.4c-2-2.6-5.7-4.5-8.8-2.9
		c-1.5,0.8-2.6,1.7-4.2,2c-1.4,0.3-2.9,0.2-4.3,0.5c-2.9,0.8-5,3.8-3.3,6.6c1.7,2.9,4.7,3.1,7.7,2.7c3.2-0.3,3.4,1.2,4.8,3.7
		c1.5,2.6,5.2,4.4,8.1,3.1C144.8,108.6,143.3,104.7,142.4,102.1z"/>
</g>
<g>
	<path class="st4" d="M163.1,112.2c0.7,1.3,1.7,3.9-0.1,4.8c-2.2,1.1-4.4-2.2-4.8-4c-0.2-1.1-0.2-2.9,1.1-3.4
		C160.9,109,162.4,111,163.1,112.2"/>
	<path class="st4" d="M168.2,106.3c0.6,1.5,1,3.8-0.7,4.8c-1.7,1-3.6-0.6-4.3-2c-0.9-1.6-1.2-4.7,1-5.5
		C166,102.9,167.6,104.8,168.2,106.3"/>
	<path class="st4" d="M175.5,105.7c0.2,1.5,0,3.8-1.8,4.4c-1.8,0.6-3.3-1.3-3.7-2.8c-0.5-1.8-0.2-4.8,2-5.2
		C174.1,101.6,175.2,104,175.5,105.7"/>
	<path class="st4" d="M182.1,111.4c-0.3,1.3-1.1,3.1-2.6,3.4c-2.4,0.5-2.9-3-2.5-4.7c0.4-1.5,1.8-3.9,3.7-3.3
		C182.5,107.3,182.4,109.9,182.1,111.4"/>
	<path class="st4" d="M176.2,116.3c-0.8-0.5-1.2-1.9-1.9-2.5c-0.7-0.6-1.3-1-2.2-1.2c-2.2-0.4-5,0.2-5.9,2.5c-0.4,1.1-0.6,2-1.3,3
		c-0.6,0.8-1.4,1.4-2,2.2c-1.2,1.8-0.9,4.3,1.3,5c2.3,0.8,3.9-0.6,5.3-2.1c1.5-1.6,2.3-0.9,4.2-0.2c1.9,0.7,4.7,0,5.6-2.1
		C180.4,118.6,177.8,117.3,176.2,116.3z"/>
</g>
<g>
	<path class="st4" d="M188,212.8l-1.1,3.9l1.4,0.4l-0.2,0.8l-2.3-0.6l1.3-4.7L188,212.8z"/>
	<path class="st4" d="M190.8,213.6l-1.1,3.9l1.4,0.4l-0.2,0.8l-2.3-0.6l1.3-4.7L190.8,213.6z"/>
	<path class="st4" d="M193.7,219.6c-0.4-0.1-0.8-0.3-1.1-0.7c-0.3-0.3-0.5-0.7-0.7-1.1s-0.1-0.9,0-1.3c0.1-0.4,0.3-0.8,0.7-1.1
		c0.3-0.3,0.7-0.5,1.1-0.7s0.9-0.1,1.3,0c0.5,0.1,0.9,0.4,1.2,0.7c0.3,0.4,0.5,0.8,0.6,1.3l-1-0.3c-0.1-0.3-0.3-0.5-0.5-0.6
		c-0.2-0.2-0.4-0.3-0.6-0.3c-0.3-0.1-0.6-0.1-0.8,0s-0.5,0.2-0.7,0.5c-0.2,0.2-0.3,0.5-0.4,0.7c-0.1,0.3-0.1,0.6,0,0.9
		c0.1,0.3,0.2,0.5,0.4,0.8c0.2,0.2,0.4,0.4,0.7,0.4c0.2,0.1,0.4,0.1,0.7,0c0.2,0,0.4-0.1,0.7-0.3l1,0.3c-0.2,0.2-0.4,0.4-0.7,0.6
		c-0.3,0.2-0.6,0.3-0.9,0.3C194.3,219.7,194,219.6,193.7,219.6z"/>
</g>
<g>
	<path class="st4" d="M98.5,209.6l-0.5,1.7l-3.6-1l-0.7,2.5l3.4,0.9l-0.5,1.7l-3.4-0.9l-0.6,2.4l3.6,1l-0.5,1.7l-5.4-1.5l2.7-10.1
		L98.5,209.6z"/>
	<path class="st4" d="M102.7,212.4c-0.3-0.1-0.6-0.1-0.8,0.1c-0.2,0.1-0.4,0.4-0.5,0.7c-0.1,0.3,0,0.6,0.1,0.9
		c0.2,0.3,0.4,0.5,0.8,0.8c1,0.6,1.6,1.2,2,1.9c0.3,0.6,0.4,1.4,0.2,2.2c-0.2,0.6-0.5,1.2-0.9,1.6c-0.4,0.4-0.9,0.7-1.5,0.8
		c-0.6,0.1-1.2,0.1-1.8-0.1c-0.6-0.2-1.1-0.4-1.5-0.8c-0.4-0.4-0.7-0.9-0.9-1.4c-0.2-0.5-0.2-1.1-0.1-1.7l2,0.5
		c-0.1,0.4,0,0.8,0.2,1.1c0.2,0.3,0.4,0.5,0.8,0.6c0.4,0.1,0.7,0.1,1.1-0.1c0.3-0.2,0.6-0.4,0.7-0.8c0.1-0.4,0.1-0.7-0.1-1
		c-0.2-0.3-0.4-0.6-0.8-0.8c-0.7-0.5-1.2-0.8-1.5-1.1c-0.3-0.3-0.6-0.7-0.7-1.1c-0.2-0.5-0.2-1,0-1.7c0.1-0.6,0.4-1,0.8-1.4
		c0.4-0.4,0.8-0.6,1.4-0.7c0.5-0.1,1-0.1,1.6,0c0.5,0.1,1,0.4,1.3,0.8c0.4,0.4,0.6,0.8,0.8,1.3s0.2,1,0.1,1.6l-1.9-0.5l0,0
		c0.1-0.4,0-0.7-0.1-0.9C103.3,212.6,103.1,212.5,102.7,212.4z"/>
	<path class="st4" d="M106.7,213.7l0.5-1.7l5.6,1.5l-0.5,1.7l-1.9-0.5l-2.2,8.3l-1.9-0.5l2.2-8.3L106.7,213.7z"/>
	<path class="st4" d="M123.6,221.7c0.5-0.3,0.9-0.5,1.1-0.8c0.2-0.3,0.4-0.6,0.5-0.9c0.1-0.4,0.1-0.8-0.1-1.2
		c-0.2-0.4-0.5-0.6-0.9-0.7c-0.4-0.1-0.8-0.1-1.2,0.2c-0.4,0.2-0.7,0.6-0.8,1.2l0,0.1l-1.8-0.5c0,0,0-0.1,0-0.2
		c0.2-0.7,0.5-1.3,1-1.7c0.5-0.4,1-0.7,1.5-0.9c0.6-0.1,1.2-0.1,1.7,0c0.6,0.2,1.1,0.5,1.6,0.9c0.4,0.4,0.7,0.9,0.9,1.5
		c0.2,0.6,0.2,1.2,0,1.8c-0.2,0.6-0.5,1.1-0.9,1.6c-0.4,0.5-1.1,0.9-2,1.3l-2.5,1.3l4,1.1l-0.5,1.7l-6.5-1.7l0.5-1.7L123.6,221.7z"
		/>
	<path class="st4" d="M129.9,229c-0.6-0.1-1.1-0.4-1.5-0.8c-0.4-0.4-0.8-0.9-1-1.5c-0.2-0.6-0.2-1.2,0-1.9l1-3.8
		c0.2-0.6,0.5-1.2,0.9-1.6c0.4-0.4,0.9-0.7,1.5-0.9c0.6-0.1,1.2-0.1,1.9,0.1c0.6,0.2,1.2,0.5,1.6,0.9c0.4,0.4,0.7,0.9,0.9,1.5
		c0.1,0.6,0.1,1.2,0,1.8l-1,3.8c-0.2,0.6-0.5,1.2-0.9,1.6c-0.4,0.4-0.9,0.7-1.5,0.9C131.2,229.2,130.6,229.2,129.9,229z
		 M132.3,220.3c-0.5-0.1-0.9-0.1-1.3,0.2c-0.4,0.3-0.6,0.6-0.8,1.1l-0.9,3.5c-0.1,0.5-0.1,1,0.1,1.4c0.2,0.4,0.5,0.7,1,0.8
		c0.5,0.1,0.9,0.1,1.3-0.2c0.4-0.3,0.6-0.7,0.8-1.2l1-3.6c0.1-0.5,0.1-0.9-0.1-1.3C133.1,220.7,132.7,220.4,132.3,220.3z"/>
	<path class="st4" d="M136.7,221.7l0.5-1.7l3.2,0.9l-2.7,10.1l-1.8-0.5l2.2-8.4L136.7,221.7z"/>
	<path class="st4" d="M144.4,225.7c0.4,0.1,0.8,0.1,1,0c0.3-0.1,0.4-0.4,0.5-0.7c0.1-0.3,0.1-0.6,0-0.8c-0.1-0.2-0.3-0.4-0.6-0.4
		c-0.2-0.1-0.5,0-0.7,0.1c-0.2,0.1-0.4,0.3-0.5,0.6l-1.8-0.5c0.2-0.6,0.5-1,0.8-1.3c0.4-0.3,0.8-0.5,1.2-0.6c0.5-0.1,0.9-0.1,1.4,0
		c0.5,0.1,0.9,0.4,1.2,0.7c0.3,0.4,0.6,0.8,0.7,1.3c0.1,0.5,0.1,1,0,1.5c-0.2,0.8-0.7,1.3-1.4,1.6c0.5,0.4,0.8,0.8,0.9,1.3
		c0.2,0.5,0.1,1.1,0,1.7c-0.2,0.6-0.5,1.2-0.9,1.6c-0.4,0.4-1,0.7-1.6,0.9c-0.6,0.2-1.2,0.1-1.9,0c-0.6-0.2-1.1-0.4-1.5-0.9
		c-0.4-0.4-0.7-0.9-0.9-1.5s-0.2-1.2-0.1-1.8l1.8,0.5c-0.1,0.5,0,0.9,0.2,1.2c0.2,0.4,0.6,0.6,1,0.7c0.3,0.1,0.6,0.1,0.9,0
		c0.3-0.1,0.5-0.2,0.8-0.4c0.2-0.2,0.4-0.5,0.4-0.7c0.1-0.5,0.1-1-0.2-1.4c-0.3-0.4-0.7-0.7-1.4-0.9l-0.3-0.1l0.5-1.7L144.4,225.7z"
		/>
</g>
<ellipse transform="matrix(0.2588 -0.9659 0.9659 0.2588 -132.4337 273.529)" class="st4" cx="112" cy="223.1" rx="1.1" ry="1.1"/>
</svg>
